<svg width="30" height="30" viewBox="0 0 30 30" fill="none" xmlns="http://www.w3.org/2000/svg">
<path fill-rule="evenodd" clip-rule="evenodd" d="M12.1287 5.11893L4.41121 9.40643C2.78871 10.3077 2.78871 12.6402 4.41121 13.5414L12.1287 17.8289C13.9137 18.8202 16.085 18.8202 17.8712 17.8289L25.5887 13.5414C27.2112 12.6402 27.2112 10.3077 25.5887 9.40643L17.8712 5.11893C16.085 4.12768 13.915 4.12768 12.1287 5.11893Z" stroke="white" stroke-width="1.77375" stroke-linecap="round" stroke-linejoin="round"/>
<path d="M7.48877 15.25V20.155C7.48877 21.3413 8.08252 22.4475 9.06877 23.1037L11.0775 24.44C13.4538 26.02 16.5463 26.02 18.9213 24.44L20.9301 23.1037C21.9176 22.4475 22.5101 21.34 22.5101 20.155V15.25" stroke="white" stroke-width="1.77087" stroke-linecap="round" stroke-linejoin="round"/>
</svg>
