<svg width="30" height="30" viewBox="0 0 30 30" fill="none" xmlns="http://www.w3.org/2000/svg">
<path d="M27.5 17.5V5C27.5 3.61929 26.3807 2.5 25 2.5H5C3.61929 2.5 2.5 3.61929 2.5 5V17.5" stroke="white" stroke-width="1.875" stroke-linecap="round" stroke-linejoin="round"/>
<path fill-rule="evenodd" clip-rule="evenodd" d="M12.5 13.5616V8.93894C12.5 8.64861 12.6549 8.38033 12.9064 8.23522C13.1579 8.09012 13.4676 8.09022 13.7191 8.23549L17.7191 10.5467C17.9702 10.6919 18.125 10.9601 18.125 11.2502C18.125 11.5404 17.9702 11.8085 17.7191 11.9537L13.7191 14.265C13.4677 14.4102 13.1579 14.4104 12.9065 14.2652C12.655 14.1201 12.5 13.8519 12.5 13.5616Z" stroke="white" stroke-width="1.875" stroke-linecap="round" stroke-linejoin="round"/>
<path d="M8.75 27.5V26.25C8.75 25.5596 8.19035 25 7.5 25H3.75C3.05965 25 2.5 25.5596 2.5 26.25V27.5" stroke="white" stroke-width="1.875" stroke-linecap="round" stroke-linejoin="round"/>
<path d="M27.5 27.5V26.25C27.5 25.5596 26.9404 25 26.25 25H22.5C21.8096 25 21.25 25.5596 21.25 26.25V27.5" stroke="white" stroke-width="1.875" stroke-linecap="round" stroke-linejoin="round"/>
<path d="M18.125 27.5V26.25C18.125 25.5596 17.5654 25 16.875 25H13.125C12.4346 25 11.875 25.5596 11.875 26.25V27.5" stroke="white" stroke-width="1.875" stroke-linecap="round" stroke-linejoin="round"/>
<path d="M13.125 21.875V20.625C13.125 19.9346 12.5654 19.375 11.875 19.375H8.125C7.43465 19.375 6.875 19.9346 6.875 20.625V21.875" stroke="white" stroke-width="1.875" stroke-linecap="round" stroke-linejoin="round"/>
<path d="M22.5 21.875V20.625C22.5 19.9346 21.9404 19.375 21.25 19.375H17.5C16.8096 19.375 16.25 19.9346 16.25 20.625V21.875" stroke="white" stroke-width="1.875" stroke-linecap="round" stroke-linejoin="round"/>
</svg>
