<svg width="30" height="30" viewBox="0 0 30 30" fill="none" xmlns="http://www.w3.org/2000/svg">
<path d="M15 11.2437V10" stroke="white" stroke-width="1.875" stroke-linecap="round" stroke-linejoin="round"/>
<path d="M15 18.7563V20.0001" stroke="white" stroke-width="1.875" stroke-linecap="round" stroke-linejoin="round"/>
<path d="M12.8324 17.8488C13.1562 18.3788 13.7074 18.745 14.3749 18.745H14.9999H15.7437C16.7124 18.745 17.4974 17.96 17.4974 16.9913C17.4974 16.1875 16.9512 15.485 16.1699 15.2912L13.8299 14.7037C13.0499 14.5075 12.5024 13.8062 12.5024 13.0037C12.5024 12.035 13.2874 11.25 14.2562 11.25H14.9999H15.6249C16.2899 11.25 16.8412 11.615 17.1662 12.1413" stroke="white" stroke-width="1.875" stroke-linecap="round" stroke-linejoin="round"/>
<path fill-rule="evenodd" clip-rule="evenodd" d="M4.36875 16.8302L5.8625 18.7852L6.185 21.2189C6.36375 22.5689 7.425 23.6314 8.775 23.8114L11.215 24.1377L13.1687 25.6302C14.25 26.4564 15.7487 26.4564 16.83 25.6302L18.785 24.1364H18.7825L21.2175 23.8139C22.5675 23.6352 23.63 22.5739 23.81 21.2239L24.135 18.7839C24.135 18.7839 24.89 17.7964 25.6288 16.8302C26.455 15.7489 26.4538 14.2502 25.6288 13.1689L24.1375 11.2139L23.815 8.78018C23.6363 7.43018 22.575 6.36768 21.225 6.18768L18.7838 5.86268L16.83 4.37018C15.7487 3.54393 14.25 3.54393 13.1687 4.37018L11.2137 5.86268H11.2162L8.78125 6.18643C7.43125 6.36518 6.36875 7.42643 6.18875 8.77643L5.8625 11.2164C5.8625 11.2164 5.1075 12.2039 4.36875 13.1702C3.54375 14.2502 3.54375 15.7502 4.36875 16.8302Z" stroke="white" stroke-width="1.875" stroke-linecap="round" stroke-linejoin="round"/>
</svg>
