<svg width="19" height="18" viewBox="0 0 19 18" fill="none" xmlns="http://www.w3.org/2000/svg">
<path d="M16.0347 4.36804L16.0428 4.35181" stroke="white" stroke-width="1.62162" stroke-linecap="round" stroke-linejoin="round"/>
<path d="M11.9286 1.36401L11.9207 1.37195" stroke="white" stroke-width="1.62162" stroke-linecap="round" stroke-linejoin="round"/>
<path d="M17.541 8.97278V8.96484" stroke="white" stroke-width="1.62162" stroke-linecap="round" stroke-linejoin="round"/>
<path d="M1.45898 8.96484V8.97278" stroke="white" stroke-width="1.62162" stroke-linecap="round" stroke-linejoin="round"/>
<path d="M2.95703 4.35181L2.96515 4.36804" stroke="white" stroke-width="1.62162" stroke-linecap="round" stroke-linejoin="round"/>
<path d="M7.07874 1.37195L7.0708 1.36401" stroke="white" stroke-width="1.62162" stroke-linecap="round" stroke-linejoin="round"/>
<path d="M15.1859 3.35518C18.3261 6.49542 18.3261 11.5868 15.1859 14.7269C12.0457 17.8671 6.95432 17.8671 3.81416 14.7269C0.673925 11.5867 0.673925 6.49542 3.81416 3.35518C6.9544 0.21494 12.0457 0.21494 15.1859 3.35518Z" stroke="white" stroke-width="1.62162" stroke-linecap="round" stroke-linejoin="round"/>
<path d="M12.7925 7.98279L14.4853 7.43262" stroke="white" stroke-width="1.62162" stroke-linecap="round" stroke-linejoin="round"/>
<path d="M17.493 9.75532L14.4873 7.42935L15.5521 3.78125" stroke="white" stroke-width="1.62162" stroke-linecap="round" stroke-linejoin="round"/>
<path d="M9.5 5.59602V3.81006" stroke="white" stroke-width="1.62162" stroke-linecap="round" stroke-linejoin="round"/>
<path d="M12.6413 1.66699L9.50022 3.80591L6.35913 1.66699" stroke="white" stroke-width="1.62162" stroke-linecap="round" stroke-linejoin="round"/>
<path d="M11.5312 11.8428L12.5808 13.2902" stroke="white" stroke-width="1.62162" stroke-linecap="round" stroke-linejoin="round"/>
<path d="M11.2988 16.8696L12.5829 13.2926L16.3808 13.1775" stroke="white" stroke-width="1.62162" stroke-linecap="round" stroke-linejoin="round"/>
<path d="M6.2075 7.98279L4.51465 7.43262" stroke="white" stroke-width="1.62162" stroke-linecap="round" stroke-linejoin="round"/>
<path d="M1.50708 9.75532L4.51274 7.42935L3.44793 3.78125" stroke="white" stroke-width="1.62162" stroke-linecap="round" stroke-linejoin="round"/>
<path d="M7.46876 11.8428L6.41919 13.2902" stroke="white" stroke-width="1.62162" stroke-linecap="round" stroke-linejoin="round"/>
<path d="M7.70132 16.8696L6.4173 13.2926L2.61938 13.1775" stroke="white" stroke-width="1.62162" stroke-linecap="round" stroke-linejoin="round"/>
<path fill-rule="evenodd" clip-rule="evenodd" d="M9.50003 5.59253L12.7884 7.98199L11.5323 11.8468H7.46776L6.21167 7.98199L9.50003 5.59253Z" stroke="white" stroke-width="1.62162" stroke-linecap="round" stroke-linejoin="round"/>
</svg>
