<svg width="30" height="30" viewBox="0 0 30 30" fill="none" xmlns="http://www.w3.org/2000/svg">
<path d="M7.5 12.5H11.25" stroke="white" stroke-width="1.875" stroke-linecap="round" stroke-linejoin="round"/>
<path d="M9.375 10.625V14.375" stroke="white" stroke-width="1.875" stroke-linecap="round" stroke-linejoin="round"/>
<path fill-rule="evenodd" clip-rule="evenodd" d="M24.5617 6.72016C18.3936 4.42661 11.6066 4.42661 5.43845 6.72016C4.35573 7.15383 3.54325 8.07585 3.24927 9.20455C2.21535 13.6662 2.25159 18.3091 3.35503 22.7541C3.57857 23.5586 4.1885 24.1986 4.98128 24.4606L6.40503 24.935C7.031 25.1464 7.71298 24.8317 7.95869 24.2185C8.45928 22.967 9.26844 20.944 9.71052 19.839C9.90012 19.3655 10.3595 19.0556 10.8696 19.0571H19.1302C19.6414 19.0571 20.1011 19.3682 20.2909 19.8429L22.0388 24.2132C22.2847 24.8277 22.9669 25.1443 23.5948 24.9349L25.0191 24.46C25.8118 24.198 26.4216 23.558 26.6451 22.7536C27.7484 18.3089 27.7846 13.6661 26.7508 9.2046C26.4568 8.07589 25.6444 7.15384 24.5617 6.72016Z" stroke="white" stroke-width="1.875" stroke-linecap="round" stroke-linejoin="round"/>
<path d="M17.9375 12.5003C17.9374 12.621 17.8395 12.7188 17.7188 12.7188C17.598 12.7187 17.5001 12.6208 17.5 12.5C17.5 12.3793 17.5977 12.2814 17.7185 12.2813C17.7766 12.2812 17.8324 12.3042 17.8735 12.3453C17.9146 12.3864 17.9376 12.4422 17.9375 12.5003Z" stroke="white" stroke-width="1.875" stroke-linecap="round" stroke-linejoin="round"/>
<path d="M22.5 12.5003C22.4998 12.621 22.4019 12.7188 22.2811 12.7188C22.1604 12.7187 22.0625 12.6208 22.0625 12.5C22.0624 12.3793 22.1601 12.2814 22.2809 12.2813C22.339 12.2812 22.3948 12.3042 22.4359 12.3453C22.477 12.3864 22.5 12.4422 22.5 12.5003Z" stroke="white" stroke-width="1.875" stroke-linecap="round" stroke-linejoin="round"/>
<path d="M20.0003 14.5625C20.121 14.5626 20.2187 14.6606 20.2187 14.7814C20.2187 14.9021 20.1209 15 20.0001 15C19.8794 15 19.7814 14.9023 19.7813 14.7815C19.7811 14.7234 19.8043 14.6676 19.8454 14.6266C19.8864 14.5855 19.9421 14.5624 20.0003 14.5625Z" stroke="white" stroke-width="1.875" stroke-linecap="round" stroke-linejoin="round"/>
<path d="M20.0003 10C20.121 10.0002 20.2187 10.0981 20.2187 10.2189C20.2187 10.3396 20.1209 10.4375 20.0001 10.4375C19.8794 10.4376 19.7814 10.3398 19.7813 10.219C19.7811 10.1609 19.8043 10.1052 19.8454 10.0641C19.8864 10.023 19.9421 9.99993 20.0003 10Z" stroke="white" stroke-width="1.875" stroke-linecap="round" stroke-linejoin="round"/>
</svg>
