<svg width="21" height="19" viewBox="0 0 21 19" fill="none" xmlns="http://www.w3.org/2000/svg">
<path fill-rule="evenodd" clip-rule="evenodd" d="M11.056 4.83576C11.4421 3.9036 12.5107 3.46095 13.4429 3.84706L18.5063 5.9444C19.4385 6.33051 19.8811 7.39913 19.495 8.33129L15.9995 16.7703C15.6134 17.7025 14.5446 18.1451 13.6125 17.759L8.54914 15.6617C7.61698 15.2756 7.17433 14.207 7.56044 13.2748L11.056 4.83576Z" stroke="#26FF03" stroke-width="1.75" stroke-linecap="round" stroke-linejoin="round"/>
<path fill-rule="evenodd" clip-rule="evenodd" d="M14.7465 9.21471L15.2481 11.0018C15.3399 11.3425 15.1909 11.7024 14.885 11.8784L13.2667 12.7872C13.0912 12.8909 12.8772 12.9061 12.689 12.8281C12.5007 12.7501 12.36 12.588 12.3093 12.3906L11.8076 10.6036C11.7159 10.2629 11.8649 9.90307 12.1707 9.72706L13.7891 8.81819C13.9645 8.71451 14.1785 8.69935 14.3668 8.77736C14.5551 8.85537 14.6957 9.01741 14.7465 9.21471Z" stroke="#26FF03" stroke-width="1.75" stroke-linecap="round" stroke-linejoin="round"/>
<path d="M5.93297 4.51978L2.49398 5.94419C2.0464 6.12961 1.69071 6.4853 1.50528 6.93289C1.31985 7.38056 1.31985 7.8835 1.50528 8.33117L5.0009 16.7702C5.18633 17.2179 5.54193 17.5735 5.98961 17.7589C6.43719 17.9443 6.94012 17.9442 7.3878 17.7588L10.5001 16.4698" stroke="#26FF03" stroke-width="1.75" stroke-linecap="round" stroke-linejoin="round"/>
<path d="M15.0674 4.51992V2.82687C15.0674 1.81789 14.2496 1 13.2406 1H7.75997C6.75099 1 5.93311 1.81789 5.93311 2.82687V11.9612C5.93402 12.8464 6.57032 13.6032 7.44219 13.7559" stroke="#26FF03" stroke-width="1.75" stroke-linecap="round" stroke-linejoin="round"/>
</svg>
