<svg width="18" height="18" viewBox="0 0 18 18" fill="none" xmlns="http://www.w3.org/2000/svg">
<path fill-rule="evenodd" clip-rule="evenodd" d="M13.4801 9.0212L8.73534 12.817C8.38557 13.0969 7.88122 13.0689 7.5645 12.7521L5.16059 10.3483C4.84378 10.0315 4.81592 9.52723 5.09573 9.17737L8.89151 4.43265C10.6272 2.26303 13.255 1 16.0335 1C16.5191 1 16.9127 1.39362 16.9127 1.87925C16.9127 4.65771 15.6497 7.28555 13.4801 9.0212Z" stroke="#26FF03" stroke-width="1.68367" stroke-linecap="round" stroke-linejoin="round"/>
<path d="M12.5168 9.79175V13.6443C12.5168 13.9774 12.3286 14.2818 12.0307 14.4307L9.90669 15.4927C9.67872 15.6067 9.41253 15.6162 9.1771 15.5186C8.94157 15.4211 8.76001 15.2262 8.67942 14.9844L8.12085 13.3085" stroke="#26FF03" stroke-width="1.68367" stroke-linecap="round" stroke-linejoin="round"/>
<path d="M4.60415 9.79167L2.92833 9.23301C2.68648 9.15242 2.49165 8.97094 2.3941 8.73542C2.29656 8.49999 2.30596 8.23379 2.41994 8.00583L3.48199 5.88174C3.63095 5.58391 3.93537 5.39575 4.26835 5.39575H8.1209" stroke="#26FF03" stroke-width="1.68367" stroke-linecap="round" stroke-linejoin="round"/>
<path fill-rule="evenodd" clip-rule="evenodd" d="M3.50528 16.4622L1.0874 16.8254L1.45062 14.4076C1.56847 13.6232 2.18416 13.0075 2.9685 12.8897C3.53534 12.8045 4.10894 12.9934 4.51416 13.3987C4.91947 13.8039 5.10833 14.3775 5.02317 14.9444C4.90533 15.7287 4.28963 16.3444 3.50528 16.4622Z" stroke="#26FF03" stroke-width="1.68367" stroke-linecap="round" stroke-linejoin="round"/>
</svg>
