<svg width="22" height="22" viewBox="0 0 22 22" fill="none" xmlns="http://www.w3.org/2000/svg">
<g clip-path="url(#clip0_3_1650)">
<path d="M11 13.75C12.5188 13.75 13.75 12.5188 13.75 11C13.75 9.48122 12.5188 8.25 11 8.25C9.48122 8.25 8.25 9.48122 8.25 11C8.25 12.5188 9.48122 13.75 11 13.75Z" fill="#FF0045"/>
<path d="M7.83308 7.69497L6.56395 6.37085C5.3457 7.53868 4.5835 9.17906 4.5835 11C4.5835 12.821 5.3457 14.4613 6.56395 15.6292L7.83308 14.3051C6.96225 13.47 6.41683 12.2985 6.41683 11C6.41683 9.70156 6.96225 8.5296 7.83308 7.69497Z" fill="#FF0045"/>
<path d="M15.4361 6.37085L14.167 7.69497C15.0378 8.53006 15.5832 9.70156 15.5832 11C15.5832 12.2985 15.0378 13.47 14.167 14.3051L15.4361 15.6292C16.6544 14.4613 17.4166 12.821 17.4166 11C17.4166 9.17906 16.6544 7.53868 15.4361 6.37085Z" fill="#FF0045"/>
<g filter="url(#filter0_d_3_1650)">
<path d="M5.29863 5.05133L4.02492 3.72217C2.11046 5.55733 0.916504 8.13867 0.916504 11C0.916504 13.8614 2.11046 16.4428 4.02492 18.2779L5.29863 16.9488C3.73159 15.4463 2.74984 13.3375 2.74984 11C2.74984 8.66254 3.73159 6.55375 5.29863 5.05133Z" fill="#FF0045"/>
<path d="M17.9749 3.72217L16.7012 5.05133C18.2682 6.55375 19.25 8.66254 19.25 11C19.25 13.3375 18.2682 15.4463 16.7012 16.9488L17.9749 18.2779C19.8893 16.4428 21.0833 13.8614 21.0833 11C21.0833 8.13867 19.8893 5.55733 17.9749 3.72217Z" fill="#FF0045"/>
</g>
</g>
<defs>
<filter id="filter0_d_3_1650" x="-3.0835" y="3.72217" width="28.167" height="22.5557" filterUnits="userSpaceOnUse" color-interpolation-filters="sRGB">
<feFlood flood-opacity="0" result="BackgroundImageFix"/>
<feColorMatrix in="SourceAlpha" type="matrix" values="0 0 0 0 0 0 0 0 0 0 0 0 0 0 0 0 0 0 127 0" result="hardAlpha"/>
<feOffset dy="4"/>
<feGaussianBlur stdDeviation="2"/>
<feComposite in2="hardAlpha" operator="out"/>
<feColorMatrix type="matrix" values="0 0 0 0 0 0 0 0 0 0 0 0 0 0 0 0 0 0 0.25 0"/>
<feBlend mode="normal" in2="BackgroundImageFix" result="effect1_dropShadow_3_1650"/>
<feBlend mode="normal" in="SourceGraphic" in2="effect1_dropShadow_3_1650" result="shape"/>
</filter>
<clipPath id="clip0_3_1650">
<rect width="22" height="22" fill="white"/>
</clipPath>
</defs>
</svg>
