<svg width="21" height="19" viewBox="0 0 21 19" fill="none" xmlns="http://www.w3.org/2000/svg">
<path d="M5.79004 7.28003V14.457" stroke="#DB00FF" stroke-width="1.71875" stroke-linecap="round" stroke-linejoin="round"/>
<path d="M10.2756 7.28003V14.457" stroke="#DB00FF" stroke-width="1.71875" stroke-linecap="round" stroke-linejoin="round"/>
<path d="M8.03296 10.4197V11.3168" stroke="#DB00FF" stroke-width="1.71875" stroke-linecap="round" stroke-linejoin="round"/>
<path d="M3.54712 10.4197V11.3168" stroke="#DB00FF" stroke-width="1.71875" stroke-linecap="round" stroke-linejoin="round"/>
<path d="M12.5186 10.4197V11.3168" stroke="#DB00FF" stroke-width="1.71875" stroke-linecap="round" stroke-linejoin="round"/>
<path d="M14.7612 12.6627H16.5555C17.5464 12.6627 18.3497 11.8594 18.3497 10.8684V6.38281" stroke="#DB00FF" stroke-width="1.71875" stroke-linecap="round" stroke-linejoin="round"/>
<path d="M18.3498 6.38278C19.093 6.38278 19.6955 5.78029 19.6955 5.03709C19.6955 4.29389 19.093 3.69141 18.3498 3.69141C17.6066 3.69141 17.0042 4.29389 17.0042 5.03709C17.0042 5.78029 17.6066 6.38278 18.3498 6.38278Z" stroke="#DB00FF" stroke-width="1.71875" stroke-linecap="round" stroke-linejoin="round"/>
<path fill-rule="evenodd" clip-rule="evenodd" d="M4.44437 3.69137L4.4904 3.55321C4.99871 2.02846 6.42558 1 8.03287 1C9.64015 1 11.067 2.02846 11.5753 3.5533L11.6214 3.69137H12.967C13.958 3.69137 14.7613 4.49465 14.7613 5.48562V16.2511C14.7613 17.2421 13.958 18.0453 12.967 18.0453H3.09869C2.10773 18.0453 1.30444 17.2421 1.30444 16.2511V5.48562C1.30444 4.49465 2.10773 3.69137 3.09869 3.69137H4.44437Z" stroke="#DB00FF" stroke-width="1.71875" stroke-linecap="round" stroke-linejoin="round"/>
<path d="M7.13574 4.58862H8.92999" stroke="#DB00FF" stroke-width="1.71875" stroke-linecap="round" stroke-linejoin="round"/>
<path d="M2.09595 14.4568H14.7613" stroke="#DB00FF" stroke-width="1.71875" stroke-linecap="round" stroke-linejoin="round"/>
<path d="M14.7613 7.28003H1.30444" stroke="#DB00FF" stroke-width="1.71875" stroke-linecap="round" stroke-linejoin="round"/>
</svg>
